<svg xmlns="http://www.w3.org/2000/svg" viewBox="0 0 24 24"><path fill="#00A1E0" d="M10.006 5.17a4.2 4.2 0 0 1 3.076-1.34 4.21 4.21 0 0 1 3.924 2.673 3.46 3.46 0 0 1 1.36-.276 3.5 3.5 0 0 1 3.5 3.5c0 .578-.143 1.122-.38 1.604A3.06 3.06 0 0 1 23 13.7a3.06 3.06 0 0 1-2.46 3 3.83 3.83 0 0 1-3.66 2.74 3.82 3.82 0 0 1-2.158-.664 4.47 4.47 0 0 1-3.286 1.45 4.48 4.48 0 0 1-3.98-2.42c-.3.083-.62.127-.956.127A3.5 3.5 0 0 1 3 14.434a3.5 3.5 0 0 1 1.783-3.05A4.12 4.12 0 0 1 4.5 9.83a4.18 4.18 0 0 1 4.171-4.16c.48 0 .935.104 1.335.5z"/></svg>
