<?xml version="1.0" standalone="no"?>

<svg version="1.0" xmlns="http://www.w3.org/2000/svg" width="1024.000000pt" height="586.000000pt" viewBox="0 0 1024.000000 586.000000" preserveAspectRatio="xMidYMid meet">

<g transform="translate(0.000000,586.000000) scale(0.100000,-0.100000)" fill="#508FE3" stroke="none">
<path d="M2510 5844 c-25 -8 -108 -36 -185 -61 -345 -113 -686 -297 -994 -535&#xA;-139 -109 -426 -396 -527 -528 -314 -411 -487 -787 -596 -1290 -19 -89 -22&#xA;-136 -22 -310 -1 -179 2 -217 21 -295 30 -120 54 -189 97 -275 142 -282 336&#xA;-429 656 -497 120 -25 423 -25 570 0 438 76 752 214 1095 482 221 172 518 453&#xA;578 546 51 78 104 188 119 243 11 41 10 50 -7 82 -18 34 -97 114 -112 114 -5&#xA;0 -111 -95 -238 -211 -267 -246 -337 -303 -489 -403 -403 -265 -844 -427&#xA;-1166 -430 -305 -2 -476 116 -552 379 -19 69 -22 103 -22 250 0 175 11 260 56&#xA;425 191 709 701 1351 1325 1668 169 85 400 172 460 172 36 0 119 -31 151 -56&#xA;l26 -22 -41 -53 c-22 -30 -73 -97 -113 -149 -40 -52 -82 -115 -92 -140 -45&#xA;-102 -16 -216 69 -270 152 -96 285 -59 469 131 198 205 290 477 219 650 -44&#xA;109 -145 228 -245 291 -14 8 -77 36 -141 62 -113 45 -119 46 -220 45 -63 0&#xA;-122 -6 -149 -15z"></path>
<path d="M9445 5783 c-347 -205 -404 -242 -660 -435 -422 -317 -728 -561&#xA;-1487 -1186 -83 -69 -98 -95 -98 -173 0 -87 24 -121 115 -164 l50 -24 550 10&#xA;c465 8 574 7 708 -6 239 -23 384 -60 557 -143 97 -47 125 -67 191 -131 42 -42&#xA;88 -99 102 -127 82 -162 72 -342 -26 -490 -146 -222 -512 -406 -982 -495 -165&#xA;-31 -407 -32 -545 -1 -111 24 -286 81 -455 147 -200 78 -285 87 -340 35 -33&#xA;-31 -50 -137 -33 -205 12 -45 20 -55 83 -103 89 -67 234 -141 353 -181 235&#xA;-78 541 -101 834 -62 395 54 788 189 1117 387 278 166 438 351 512 594 32 105&#xA;32 275 0 375 -61 195 -185 355 -367 476 -250 167 -498 245 -949 299 -428 51&#xA;-585 75 -585 89 0 5 57 53 128 107 205 158 538 416 807 623 137 107 264 201&#xA;282 209 28 13 38 14 73 2 57 -19 85 -41 245 -199 134 -131 201 -181 243 -181&#xA;54 0 181 120 228 217 40 80 43 147 11 217 -61 132 -182 277 -322 387 -88 69&#xA;-246 169 -265 168 -8 0 -42 -16 -75 -36z"></path>
<path d="M4925 5720 c-466 -76 -872 -315 -1154 -680 -223 -289 -343 -601 -372&#xA;-967 -49 -619 231 -1229 738 -1605 410 -305 937 -416 1443 -306 724 158 1259&#xA;698 1418 1433 23 109 25 140 25 345 0 205 -2 236 -26 345 -80 370 -244 670&#xA;-508 933 -274 271 -615 442 -1003 503 -158 25 -406 24 -561 -1z m-292 -952&#xA;c106 -44 174 -113 184 -187 7 -51 -6 -57 -67 -36 -65 23 -174 45 -225 45 -61&#xA;0 -178 -26 -225 -50 -59 -30 -63 -28 -58 34 8 92 65 155 179 196 72 26 147 25&#xA;212 -2z m1372 3 c61 -22 116 -60 146 -103 21 -29 52 -128 44 -137 -3 -2 -37 6&#xA;-77 17 -160 47 -295 47 -456 0 -40 -12 -75 -18 -79 -14 -13 13 44 112 93 161&#xA;71 71 123 95 207 95 41 0 89 -7 122 -19z m-1692 -1433 c574 -347 1201 -344&#xA;1816 10 51 29 95 51 97 49 9 -8 -39 -125 -84 -206 -57 -102 -191 -248 -290&#xA;-314 -123 -83 -235 -131 -387 -168 -129 -32 -371 -32 -500 0 -328 80 -579 262&#xA;-706 512 -37 72 -71 179 -58 179 5 0 56 -28 112 -62z"></path>
<path d="M6453 1044 l-123 -66 0 -49 c0 -27 1 -49 3 -49 8 0 233 103 240 109&#xA;4 5 7 33 5 64 l-3 56 -122 -65z"></path>
<path d="M5185 811 c-53 -14 -135 -61 -173 -99 -135 -135 -155 -364 -47 -527&#xA;60 -89 127 -134 242 -161 161 -37 329 24 414 150 56 83 54 86 -43 86 -83 0&#xA;-83 0 -111 -35 -42 -52 -94 -75 -172 -75 -99 0 -171 44 -217 133 -29 55 -32&#xA;189 -5 258 60 156 285 201 390 78 l34 -39 81 0 c94 0 97 3 54 71 -38 58 -94&#xA;106 -162 138 -46 21 -72 26 -155 28 -55 1 -113 -2 -130 -6z"></path>
<path d="M8175 811 c-86 -22 -184 -99 -231 -178 -69 -119 -72 -291 -6 -418 23&#xA;-46 100 -122 152 -152 85 -49 227 -62 331 -30 100 30 189 105 224 190 l15 37&#xA;-85 0 -85 0 -35 -39 c-48 -53 -90 -71 -167 -71 -80 0 -133 24 -181 81 -45 52&#xA;-60 101 -60 194 0 118 46 198 138 241 96 46 210 25 272 -50 l30 -37 86 3 87 3&#xA;-20 41 c-29 59 -98 124 -166 158 -52 26 -70 30 -164 32 -58 2 -118 0 -135 -5z"></path>
<path d="M9807 806 c-161 -58 -204 -270 -74 -369 19 -14 91 -44 160 -67 163&#xA;-54 199 -91 167 -174 -14 -39 -52 -57 -115 -57 -68 0 -99 17 -116 66 l-13 35&#xA;-83 0 -83 0 6 -28 c13 -50 22 -70 55 -106 88 -100 279 -125 404 -51 83 48 130&#xA;154 107 241 -14 51 -44 97 -81 120 -13 9 -80 36 -149 60 -68 23 -133 51 -144&#xA;61 -31 28 -40 61 -28 99 16 47 45 64 107 64 44 0 58 -5 88 -31 19 -17 35 -37&#xA;35 -45 0 -11 19 -14 84 -14 l84 0 -7 33 c-18 77 -70 135 -148 163 -49 17 -207&#xA;17 -256 0z"></path>
<path d="M10 415 l0 -395 75 0 74 0 3 158 3 157 30 3 c17 1 35 -1 41 -5 6 -5&#xA;50 -77 98 -160 l88 -153 85 0 c66 0 84 3 80 13 -3 7 -44 78 -91 156 -47 78&#xA;-86 146 -86 150 0 4 16 13 35 20 118 42 178 193 124 311 -28 62 -45 79 -114&#xA;111 -60 29 -61 29 -252 29 l-193 0 0 -395z m371 258 c36 -22 62 -83 53 -129&#xA;-14 -77 -80 -109 -209 -102 l-60 3 -3 123 -3 122 97 0 c72 0 103 -4 125 -17z"></path>
<path d="M770 415 l0 -395 225 0 225 0 0 60 0 60 -150 0 -151 0 3 113 3 112&#xA;133 3 132 3 0 54 0 55 -135 0 -135 0 0 110 0 110 150 0 150 0 0 55 0 55 -225&#xA;0 -225 0 0 -395z"></path>
<path d="M1400 415 l0 -395 158 0 c183 0 254 11 332 50 54 28 121 89 152 141&#xA;28 45 48 130 48 203 0 186 -94 322 -258 375 -54 18 -88 21 -247 21 l-185 0 0&#xA;-395z m366 260 c64 -19 113 -61 143 -121 20 -39 25 -65 25 -129 1 -98 -19&#xA;-157 -72 -207 -55 -52 -106 -68 -217 -68 l-95 0 0 270 0 270 83 0 c46 0 106&#xA;-7 133 -15z"></path>
<path d="M2240 415 l0 -395 230 0 230 0 0 60 0 59 -152 3 -153 3 0 110 0 110&#xA;133 3 132 3 0 54 0 54 -132 3 -133 3 0 105 0 105 153 3 152 3 0 54 0 55 -230&#xA;0 -230 0 0 -395z"></path>
<path d="M3170 415 l0 -395 163 0 c234 1 317 23 414 113 88 81 127 211 106&#xA;356 -22 146 -112 255 -250 300 -55 18 -88 21 -248 21 l-185 0 0 -395z m363&#xA;261 c65 -19 103 -50 137 -109 27 -47 30 -60 30 -145 0 -139 -33 -200 -135&#xA;-248 -42 -20 -66 -24 -147 -24 l-98 0 0 270 0 270 83 0 c46 0 104 -6 130 -14z"></path>
<path d="M4010 415 l0 -395 230 0 230 0 0 60 0 60 -155 0 -156 0 3 113 3 112&#xA;133 3 132 3 0 54 0 54 -132 3 -133 3 0 105 0 105 153 3 152 3 0 54 0 55 -230&#xA;0 -230 0 0 -395z"></path>
<path d="M5840 415 l0 -395 205 0 205 0 0 60 0 60 -130 0 -130 0 0 335 0 335&#xA;-75 0 -75 0 0 -395z"></path>
<path d="M6390 415 l0 -395 75 0 75 0 0 395 0 395 -75 0 -75 0 0 -395z"></path>
<path d="M6720 415 l0 -395 75 0 75 0 0 264 c0 163 4 267 10 271 5 3 90 -115&#xA;187 -262 l178 -268 78 -3 77 -3 0 396 0 395 -75 0 -75 0 0 -271 c0 -189 -3&#xA;-268 -11 -264 -6 4 -89 126 -185 271 l-174 264 -80 0 -80 0 0 -395z"></path>
<path d="M7590 415 l0 -395 75 0 75 0 0 395 0 395 -75 0 -75 0 0 -395z"></path>
<path d="M9053 773 c-6 -21 -67 -195 -137 -387 -69 -192 -126 -353 -126 -358&#xA;0 -5 34 -8 77 -6 l76 3 24 70 c14 38 30 73 36 77 7 4 78 8 158 8 168 0 160 4&#xA;193 -92 l21 -63 78 -3 c48 -2 77 1 77 7 0 6 -6 28 -14 48 -8 21 -49 135 -91&#xA;253 -43 118 -85 238 -96 265 -10 28 -31 86 -46 130 l-29 80 -95 3 -95 3 -11&#xA;-38z m140 -220 c15 -43 40 -116 56 -162 17 -46 28 -88 25 -92 -7 -12 -221 -11&#xA;-228 0 -3 5 15 69 40 142 59 173 65 189 74 189 4 0 19 -35 33 -77z"></path>
</g>
</svg>