<svg xmlns="http://www.w3.org/2000/svg" viewBox="0 0 725 270" width="725" height="270">
  <defs>
    <linearGradient id="g" x1="0" y1="0" x2="1" y2="1">
      <stop offset="0%" stop-color="#C9A46B"/>
      <stop offset="100%" stop-color="#A78655"/>
    </linearGradient>
  </defs>
  <!-- Wordmark IAlem -->
  <path
    fill="url(#g)"
    fill-rule="evenodd"
    d="M83.7 14.1c-3.6 7.4-14.2 29.4-23.7 48.9-30.2 62.1-35.9 74-48.1 99.3-6.6 13.6-11.7 25.2-11.4 25.7 1 1.6 32 1.3 33.3-0.3 1-1.2 37.9-77.2 59-121.2 25.3-53.1 30.3-63.8 29.7-64.3-0.3-0.3-7.7-0.7-16.5-1l-16-0.5-6.3 13.4z M176.6 3.7c-2.9 5.8-71.3 144.7-80.2 163.1-5.2 10.6-9.4 20-9.4 20.7 0 1.3 2.9 1.5 17.8 1.5l17.7 0 43-28.1c23.7-15.4 49.1-32 56.5-36.8 7.4-4.9 18.8-12.3 25.3-16.5 6.4-4.2 11.7-8.1 11.7-8.8 0-1.6-37.8-78.9-40.1-81.9-1.6-2.2-1.8-2-9.3 13.2-4.2 8.5-7.6 16.4-7.6 17.6 0 2.4 4.3 12.5 14.5 33.8 3.7 7.7 7.1 15 7.6 16.2 0.9 2.5 1.2 2.3-49.1 29.6-26.9 14.5-33 17.5-33 16.3 0-0.4 37.2-76.5 63.4-129.6l5.7-11.5-5.8-0.6c-3.2-0.4-10.6-0.7-16.5-0.8l-10.7-0.1-1.5 2.7z M251.6 117c-6 3.8-11.5 7.5-12.3 8.2-1 1.1 0.4 5 8.6 22.3 14.2 30.4 18.8 39.3 21 40.5 2.3 1.2 32.7 1.4 33.5 0.2 0.5-0.9-31.9-67.8-36.1-74.5-1.3-2-2.7-3.7-3.1-3.6-0.4 0-5.6 3.1-11.6 6.9z M323.7 0.7c-0.9 0.8-0.9 179.5-0.1 184.6l0.7 3.8 13.1-0.3 13.1-0.3 0.7-20.5c1-31.5-0.3-166.3-1.6-167.2-1.4-1-25-1-25.9-0.1z M428.3 54c-19.6 2.7-38.5 17-47.7 36.2-5.9 12.2-7 18.4-6.4 36 0.4 12 0.9 15.4 3 21 7.7 20.6 22.3 34.9 42.3 41.5 7.2 2.4 9.6 2.7 23 2.7 13.8 0.1 15.6-0.1 22.3-2.6 9.7-3.5 17.2-8.1 24.6-14.9l6-5.6-7.3-8.7c-4-4.7-7.6-8.6-7.9-8.6-0.3 0-2.8 1.7-5.6 3.9-10.2 7.8-19.5 11.1-31.2 11.1-20 0-37.7-13.5-40.1-30.5l-0.6-4.5 44.4-0.1c24.4 0 46.4-0.4 48.9-0.7l4.5-0.7 0.3-6.8c0.2-3.7-0.4-10.8-1.3-15.8-4.4-25.8-19.6-43.9-43-51.2-6.3-2-20.1-2.8-28.2-1.7zm25.6 28.6c9.2 4.6 15.1 12.2 17.5 22.6l0.6 2.8-34.5 0c-33.9 0-34.5 0-34.5-2 0-3.1 3.7-10.3 7.6-14.9 6.8-7.9 16.3-11.9 28.5-12 6.8-0.1 8.4 0.3 14.8 3.5z M577.3 55.5c-7.7 2.1-14.9 6.1-20.4 11.2-2.7 2.5-5.2 4.4-5.5 4.1-0.3-0.3-0.8-3.8-1.1-7.7l-0.6-7.1-13.4 0-13.3 0 0.2 66.2 0.3 66.3 12 0.3c6.6 0.1 13 0 14.3-0.3l2.2-0.5 0.1-33.8c0-41.8 0.7-52.3 3.8-58.3 2.9-5.7 6.5-9.4 12.1-12.7 3.9-2.4 5.6-2.7 13-2.7 7.2 0 9.2 0.4 13 2.5 5.1 2.9 9.7 8.9 11.1 14.6 0.5 2.1 1.2 21.2 1.5 42.4 0.2 21.2 0.7 40.9 1 43.7l0.5 5.3 12.9 0c9.2 0 13.1-0.4 13.7-1.3 0.4-0.6 1.1-19.6 1.4-42.2 0.6-46.8 0.8-47.8 8.4-56.3 6.3-7 9.3-8.2 21.2-8.2 9.5 0 10.1 0.1 14.1 3.1 4.1 3 7.2 7.7 9.5 14.4 0.7 1.8 1.3 19.8 1.6 45.8 0.5 36.5 0.8 42.9 2.1 43.7 0.8 0.5 6.8 1 13.3 1l11.7 0 1.1-2.8c1.8-4.4 0.5-88.9-1.5-97.5-2.1-9.2-5.9-16-13.1-23.2-7.8-7.9-14.3-10.5-27.5-11.2-16.8-0.9-27.6 2.9-39.8 14.2-3.9 3.6-7.5 6.5-8 6.5-0.6 0-2-1.5-3.1-3.4-2.7-4.2-9.8-10.9-14.2-13.2-8.6-4.4-24.1-5.7-34.6-2.9z"
  />
  <!-- Tagline -->
  <text
    x="362.5" y="252"
    text-anchor="middle"
    font-family="'JetBrains Mono', 'IBM Plex Mono', ui-monospace, 'SF Mono', monospace"
    font-size="28"
    font-weight="400"
    letter-spacing="8"
    fill="url(#g)"
  >AUTOMAÇÃO INTELIGENTE</text>
</svg>
